<svg width="100" height="98" viewBox="0 0 100 98" fill="none" xmlns="http://www.w3.org/2000/svg">
<path d="M69.1276 34.087C65.6404 31.7318 61.6297 30.2687 57.4467 29.8261V26.8861C59.3804 26.0849 61.0257 24.7151 62.1654 22.9577C63.3051 21.2004 63.8854 19.1381 63.8297 17.0435V12.7826C63.8297 9.95747 62.7089 7.24805 60.7138 5.25038C58.7188 3.25271 56.0129 2.13043 53.1914 2.13043C50.37 2.13043 47.6641 3.25271 45.669 5.25038C43.6739 7.24805 42.5531 9.95747 42.5531 12.7826V17.0435C42.4974 19.1381 43.0778 21.2004 44.2174 22.9577C45.3571 24.7151 47.0025 26.0849 48.9361 26.8861V29.8261C40.6595 31.1683 34.0425 34.087 34.0425 40.4783V49" stroke="white" stroke-width="2" stroke-linejoin="round"/>
<path d="M29.7873 37.1122C28.3851 36.7408 26.9648 36.4421 25.5319 36.2174V33.2774C27.4656 32.4762 29.1109 31.1064 30.2506 29.349C31.3903 27.5917 31.9706 25.5294 31.9149 23.4348V19.1739C31.9149 16.3488 30.7941 13.6394 28.799 11.6417C26.804 9.64402 24.0981 8.52174 21.2766 8.52174C18.4552 8.52174 15.7493 9.64402 13.7542 11.6417C11.7591 13.6394 10.6383 16.3488 10.6383 19.1739V23.4348C10.5826 25.5294 11.163 27.5917 12.3027 29.349C13.4423 31.1064 15.0877 32.4762 17.0213 33.2774V36.2174C8.74471 37.5596 2.12769 40.4783 2.12769 46.8696V70.3044" stroke="white" stroke-width="2" stroke-linejoin="round"/>
<path d="M97.8722 66.0435V57.5217C97.8722 52.4087 93.9361 52.217 87.2339 51.1304V46.8696C88.6076 46.5208 89.8032 45.6741 90.5893 44.4934C91.3754 43.3128 91.6961 41.8821 91.4893 40.4783V36.2174C91.4893 33.9573 90.5926 31.7897 88.9966 30.1916C87.4005 28.5935 85.2358 27.6956 82.9786 27.6956C80.7215 27.6956 78.5567 28.5935 76.9607 30.1916C75.3646 31.7897 74.468 33.9573 74.468 36.2174V40.4783C74.2612 41.8821 74.5819 43.3128 75.368 44.4934C76.1541 45.6741 77.3496 46.5208 78.7233 46.8696V51.1304C76.4753 51.4082 74.3052 52.1325 72.3403 53.2609" stroke="white" stroke-width="2" stroke-linejoin="round"/>
<path d="M59.5745 61.7826V42.6087H44.6809V61.7826H25.532V76.6957H44.6809V95.8696H59.5745V76.6957H78.7235V61.7826H59.5745Z" stroke="white" stroke-width="2" stroke-linejoin="round"/>
</svg>
