<svg width="91" height="98" viewBox="0 0 91 98" fill="none" xmlns="http://www.w3.org/2000/svg">
<path d="M0.154198 77.6994C0.487358 77.0893 1.25187 76.8644 1.86238 77.1976L13.4001 83.4953L13.6615 72.5958L8.7459 75.434C8.14378 75.7818 7.37381 75.5754 7.02639 74.9733C7.02093 74.964 7.01589 74.9544 7.01086 74.9447C7.00666 74.938 7.00246 74.9317 6.99827 74.9246C4.00023 69.732 2.1091 64.1069 1.3769 58.2056C0.66988 52.5062 1.06808 46.7912 2.56101 41.2194C4.05394 35.6475 6.5665 30.499 10.0286 25.917C13.6132 21.1726 18.0639 17.2468 23.2565 14.2487C23.8586 13.9013 24.6286 14.1073 24.976 14.7095C25.3234 15.3116 25.1174 16.0815 24.5153 16.429C14.8229 22.0248 7.88949 31.0604 4.993 41.871C2.20015 52.2935 3.48245 63.1624 8.59232 72.6151L14.3442 69.2944C14.7382 69.067 15.2245 69.0695 15.616 69.3019C16.0075 69.5344 16.2429 69.9595 16.232 70.4147L15.8673 85.6193C15.8568 86.0583 15.6185 86.4598 15.2384 86.6793C15.0437 86.7917 14.8263 86.8479 14.609 86.8479C14.4017 86.8479 14.194 86.7967 14.006 86.6939L0.656036 79.4072C0.0455189 79.0744 -0.178965 78.3095 0.154198 77.6994Z" fill="white"/>
<path d="M24.5292 89.0022C25.9768 89.838 27.4601 90.5811 28.9719 91.2328C34.2232 93.4692 39.8437 94.5862 45.4626 94.5862C52.7174 94.5862 59.9698 92.7232 66.4144 89.0022C66.4874 88.9598 66.563 88.9262 66.6402 88.8998C72.5259 85.47 77.4977 80.6324 81.1491 74.6985L75.3972 71.3778C75.0032 71.1503 74.7624 70.7278 74.7678 70.2725C74.7733 69.8173 75.0238 69.4006 75.4237 69.1828L88.7737 61.8961C89.1588 61.6859 89.6259 61.6913 90.006 61.9108C90.3862 62.1302 90.6245 62.5318 90.635 62.9707L90.9996 78.1757C91.0164 78.8705 90.4663 79.4475 89.7715 79.4643C89.761 79.4647 89.7509 79.4647 89.7408 79.4647C89.0598 79.4647 88.4992 78.9209 88.4829 78.2361L88.1677 65.0951L78.5979 70.3187L83.5135 73.1568C84.1157 73.5043 84.3221 74.2743 83.9743 74.8764C83.9697 74.8843 83.9646 74.8923 83.96 74.8999C83.9554 74.9083 83.9512 74.9167 83.9466 74.9246C80.9485 80.1172 77.0228 84.5674 72.2783 88.1525C68.6442 90.8983 64.6538 93.0459 60.3785 94.5623C59.1738 94.9932 57.952 95.3721 56.7158 95.6965C54.0291 96.4014 51.2799 96.8504 48.5076 97.0388C47.4955 97.1088 46.4818 97.1441 45.4663 97.1441C43.6428 97.1441 41.8154 97.0308 39.9897 96.8046C36.0388 96.3145 32.212 95.3037 28.5556 93.7902C26.8848 93.1042 25.2538 92.3162 23.674 91.4287C23.6157 91.396 23.5611 91.3595 23.5104 91.3192C23.4306 91.2739 23.3505 91.2286 23.2708 91.1828C22.6687 90.8354 22.4626 90.0654 22.8101 89.4633C23.1575 88.8608 23.927 88.6543 24.5292 89.0022Z" fill="white"/>
<path d="M88.6311 53.9743C87.9358 53.9743 87.3723 53.4108 87.3723 52.7155C87.3723 30.0139 69.225 11.4722 46.6753 10.8332V17.4746C46.6753 17.9299 46.4298 18.3495 46.0329 18.5723C45.8411 18.6797 45.6288 18.7334 45.4165 18.7334C45.1891 18.7334 44.9621 18.6717 44.7611 18.5492L31.7757 10.6314C31.401 10.4027 31.1724 9.99567 31.1724 9.55676C31.1724 9.11786 31.401 8.71043 31.7757 8.48217L44.7611 0.564326C45.3548 0.202212 46.1294 0.390192 46.4911 0.983925C46.8532 1.57766 46.6652 2.35224 46.0715 2.71394L34.8489 9.55718L44.1573 15.2327V9.55676C44.1573 8.86149 44.7208 8.29797 45.4161 8.29797C45.4253 8.29797 45.4345 8.29839 45.4442 8.29881C45.4534 8.29881 45.4627 8.29797 45.4723 8.29797C51.468 8.29797 57.2853 9.47242 62.7619 11.789C68.0514 14.0263 72.8013 17.2287 76.8802 21.3076C80.9591 25.3866 84.1615 30.1364 86.3988 35.4259C88.7154 40.9029 89.8899 46.7198 89.8899 52.7155C89.8899 53.4108 89.3264 53.9743 88.6311 53.9743Z" fill="white"/>
<path d="M45.4998 31.484C40.0905 34.9052 33.8257 36.7841 27.3994 36.9129V52.5194C27.3998 55.3393 28.0388 58.1236 29.2698 60.6692C30.5008 63.2148 32.2928 65.4577 34.5151 67.2342L45.4998 76.0742L56.4845 67.2899C58.7068 65.5134 60.4988 63.2706 61.7298 60.7249C62.9608 58.1793 63.5998 55.395 63.6002 52.5752V36.9686C57.1684 36.8232 50.9032 34.9248 45.4998 31.484V31.484Z" stroke="white" stroke-width="2" stroke-linecap="round" stroke-linejoin="round"/>
<path d="M49.1481 50.0211V41.3329H42.3906V50.0211H33.7024V56.7786H42.3906V65.4668H49.1481V56.7786H57.8362V50.0211H49.1481Z" stroke="white" stroke-width="2" stroke-linejoin="round"/>
</svg>
